<?xml version="1.0" encoding="utf-8"?>
<!-- Generator: Adobe Illustrator 28.0.0, SVG Export Plug-In . SVG Version: 6.00 Build 0)  -->
<svg version="1.0" id="katman_1" xmlns="http://www.w3.org/2000/svg" xmlns:xlink="http://www.w3.org/1999/xlink" x="0px" y="0px"
	 viewBox="0 0 841.89 595.28" style="enable-background:new 0 0 841.89 595.28;" xml:space="preserve">
<style type="text/css">
	.st0{fill-rule:evenodd;clip-rule:evenodd;fill:#146EF5;}
	.st1{fill:#1D1D1B;}
	.st2{fill-rule:evenodd;clip-rule:evenodd;fill:#1D1D1B;}
</style>
<path class="st0" d="M255.81,238.27l-60.51,118.28h-56.83l25.32-49.02h-1.14c-20.89,27.12-52.06,44.97-96.47,49.02v-48.34
	c0,0,28.41-1.68,45.11-19.24H66.19v-50.7h50.7v41.7l1.14,0l20.72-41.7h38.34v41.44l1.14,0l21.5-41.44H255.81z"/>
<path class="st1" d="M585.75,343.5h16.33v-93.73h-16.33V343.5z"/>
<path class="st2" d="M495.74,342.54c3.55,1.48,7.16,2.21,10.83,2.21c6.06,0,11.48-1.48,16.27-4.43c4.78-2.95,8.49-7.02,11.13-12.2
	c2.63-5.22,3.95-11.15,3.95-17.76c0-6.62-1.36-12.54-4.07-17.76c-2.71-5.22-6.48-9.27-11.31-12.14c-4.82-2.91-10.31-4.35-16.45-4.31
	c-3.91,0-7.66,0.76-11.24,2.27c-3.59,1.52-6.58,3.67-8.97,6.46c-0.18,0.21-0.36,0.43-0.54,0.64v-35.69h-16.39v93.67h16.27
	l-0.03-8.75c0.42,0.52,0.87,1.02,1.35,1.51C489.12,338.93,492.19,341.02,495.74,342.54z M512.48,327.41
	c-2.67,1.63-5.72,2.45-9.15,2.45c-3.39,0-6.5-0.84-9.33-2.51c-2.83-1.72-5.08-4.05-6.76-7c-1.63-2.95-2.45-6.3-2.45-10.05
	c-0.04-3.75,0.76-7.1,2.39-10.05c1.67-2.99,3.93-5.3,6.76-6.94c2.83-1.67,5.96-2.49,9.39-2.45c3.43-0.04,6.48,0.76,9.15,2.39
	c2.71,1.59,4.78,3.89,6.22,6.88c1.48,2.95,2.21,6.34,2.21,10.17c0,3.83-0.74,7.22-2.21,10.17
	C517.27,323.42,515.2,325.73,512.48,327.41z"/>
<path class="st1" d="M279.47,255.45h18.66l16.69,60.97l17.76-60.97h15.55l19.26,59.74l16.03-59.74h17.11l-25.24,88.04H359.2
	l-19.58-58.36l-17.98,58.36h-16.27L279.47,255.45z"/>
<path class="st2" d="M428.09,345.05c-6.5,0.04-12.36-1.4-17.59-4.31c-5.18-2.95-9.27-7.04-12.26-12.26
	c-2.95-5.22-4.43-11.18-4.43-17.88c0-6.5,1.52-12.38,4.55-17.64c3.03-5.26,7.14-9.37,12.32-12.32c5.18-2.95,10.97-4.43,17.35-4.43
	c7.18,0,13.46,1.59,18.84,4.78c5.42,3.19,9.47,7.72,12.14,13.58c2.71,5.82,3.69,12.5,2.93,20.04h-51.23c0.14,3,0.89,5.73,2.25,8.19
	c1.52,2.71,3.63,4.82,6.34,6.34c2.71,1.52,5.74,2.27,9.09,2.27c2.55-0.04,4.92-0.48,7.12-1.32c2.19-0.88,4.05-2.05,5.56-3.53
	c1.56-1.48,2.65-3.15,3.29-5.02h17.11c-1.04,4.59-3.11,8.67-6.22,12.26c-3.11,3.55-7.02,6.32-11.72,8.31
	C438.82,344.11,433.67,345.09,428.09,345.05z M413.02,298.16c-0.96,1.67-1.62,3.46-1.99,5.38h33.96c-0.25-2.43-1-4.64-2.25-6.64
	c-1.44-2.35-3.39-4.17-5.86-5.44c-2.47-1.32-5.26-1.97-8.37-1.97c-3.31,0-6.32,0.76-9.03,2.27
	C416.76,293.27,414.61,295.41,413.02,298.16z"/>
<path class="st1" d="M549.93,277.58c0-5.34,1.22-10.09,3.65-14.24c2.43-4.19,5.84-7.44,10.23-9.75c4.43-2.35,9.59-3.57,15.49-3.65
	v14.53c-2.75,0.04-5.1,0.62-7.06,1.73c-1.91,1.08-3.39,2.65-4.43,4.73c-0.95,1.91-1.47,4.12-1.54,6.64h12.67v13.82h-12.68v52.1
	h-16.33v-52.1H539.4v-13.82H549.93z"/>
<path class="st2" d="M643.59,344.93c-6.66,0-12.62-1.46-17.88-4.37c-5.22-2.95-9.33-7.02-12.32-12.2
	c-2.95-5.22-4.43-11.14-4.43-17.76c0-6.66,1.48-12.6,4.43-17.82c2.99-5.26,7.1-9.35,12.32-12.26c5.26-2.91,11.22-4.37,17.88-4.37
	c6.7,0,12.68,1.46,17.94,4.37c5.3,2.91,9.43,6.98,12.38,12.2c2.95,5.22,4.45,11.18,4.49,17.88c-0.04,6.62-1.54,12.54-4.49,17.76
	c-2.91,5.18-7.02,9.25-12.32,12.2C656.29,343.48,650.29,344.93,643.59,344.93z M643.59,329.92c3.51,0,6.62-0.8,9.33-2.39
	c2.71-1.63,4.8-3.91,6.28-6.82c1.48-2.95,2.21-6.32,2.21-10.11c0-3.83-0.74-7.22-2.21-10.17c-1.48-2.95-3.57-5.22-6.28-6.82
	c-2.71-1.63-5.82-2.45-9.33-2.45c-3.47,0-6.56,0.82-9.27,2.45c-2.67,1.6-4.75,3.87-6.22,6.82c-1.48,2.95-2.19,6.34-2.15,10.17
	c0,3.79,0.74,7.16,2.21,10.11c1.52,2.91,3.59,5.18,6.22,6.82C637.05,329.12,640.12,329.92,643.59,329.92z"/>
<path class="st1" d="M696.05,277.58h-18.18l19.68,65.91h15.91l12.94-42.1l13.97,42.1h15.67l19.74-65.91h-16.45l-11.2,41.03
	l-12.37-41.03h-15.91l-12.31,41.93L696.05,277.58z"/>
</svg>
